<svg width="30" height="30" viewBox="0 0 30 30" fill="none" xmlns="http://www.w3.org/2000/svg">
<path fill-rule="evenodd" clip-rule="evenodd" d="M15 2.66675C8.18851 2.66675 2.66669 8.18857 2.66669 15.0001C2.66669 21.8116 8.18851 27.3334 15 27.3334C21.8115 27.3334 27.3333 21.8116 27.3333 15.0001C27.3333 8.18857 21.8115 2.66675 15 2.66675ZM0.666687 15.0001C0.666687 7.084 7.08394 0.666748 15 0.666748C22.9161 0.666748 29.3333 7.084 29.3333 15.0001C29.3333 22.9162 22.9161 29.3334 15 29.3334C7.08394 29.3334 0.666687 22.9162 0.666687 15.0001ZM15 8.66675C15.5523 8.66675 16 9.11446 16 9.66675V15.0001C16 15.5524 15.5523 16.0001 15 16.0001C14.4477 16.0001 14 15.5524 14 15.0001V9.66675C14 9.11446 14.4477 8.66675 15 8.66675ZM14 20.3334C14 19.7811 14.4477 19.3334 15 19.3334H15.0134C15.5656 19.3334 16.0134 19.7811 16.0134 20.3334C16.0134 20.8857 15.5656 21.3334 15.0134 21.3334H15C14.4477 21.3334 14 20.8857 14 20.3334Z" fill="white"/>
</svg>